<svg width="64" height="40" viewBox="0 0 64 40" fill="none" xmlns="http://www.w3.org/2000/svg">
<path d="M63.6322 0.40918H0.367813V39.5908H63.6322V0.40918Z" fill="#00875F"/>
<path d="M63.6322 0C63.8353 0 64 0.183208 64 0.409207V39.5908C64 39.8168 63.8353 40 63.6322 40H0.367816C0.164677 40 0 39.8168 0 39.5908V0.409207C0 0.183208 0.164677 0 0.367816 0H63.6322ZM0.735632 39.1816H63.2644V0.818414H0.735632V39.1816ZM59.6782 4.29668C59.8813 4.29668 60.046 4.47988 60.046 4.70588V35.9079C60.046 36.1339 59.8813 36.3171 59.6782 36.3171H4.5977C4.39456 36.3171 4.22989 36.1339 4.22989 35.9079V4.70588C4.22989 4.47988 4.39456 4.29668 4.5977 4.29668H59.6782ZM4.96552 35.4987H59.3103V5.11509H4.96552V35.4987ZM52.5977 7.05882C52.7913 7.05882 52.9517 7.22591 52.9646 7.44086C53.101 9.71414 53.4751 10.9704 54.1435 11.6862C54.8082 12.3979 55.8491 12.6662 57.567 12.6854C57.7686 12.6877 57.931 12.8703 57.931 13.0946V27.2123C57.931 27.3226 57.891 27.4282 57.82 27.5052C57.7491 27.5822 57.6532 27.624 57.5541 27.6213C55.5856 27.5666 54.5367 27.9265 53.9303 28.6677C53.3073 29.4291 53.0578 30.6957 52.965 32.7572C52.9551 32.9749 52.7937 33.1458 52.5977 33.1458H11.7701C11.5749 33.1458 11.4137 32.9762 11.4028 32.7593C11.305 30.8028 11.0112 29.6295 10.3766 28.8919C9.74419 28.1567 8.69725 27.7671 6.87015 27.6205C6.67778 27.605 6.52874 27.4268 6.52874 27.2123V13.0946C6.52874 12.8818 6.67538 12.7045 6.86602 12.6868C8.63518 12.5232 9.64913 12.1093 10.2795 11.3511C10.9177 10.5834 11.233 9.38188 11.4041 7.42827L11.4091 7.38971C11.4423 7.19938 11.5926 7.05882 11.7701 7.05882H52.5977ZM12.1011 7.87724C11.9196 9.66151 11.5834 10.9879 10.8195 11.9068C10.0477 12.8351 8.90098 13.2769 7.26437 13.4673V26.835C8.94245 27.0059 10.1267 27.4176 10.908 28.3258C11.6842 29.2279 11.9964 30.5442 12.1149 32.3274H52.2502C52.3564 30.4718 52.6198 29.0537 53.3863 28.1168C54.1686 27.1606 55.3941 26.7946 57.1954 26.7975V13.4956C55.6408 13.4437 54.4567 13.1573 53.6334 12.2758C52.8007 11.3841 52.4135 9.96488 52.2566 7.87724H12.1011Z" fill="black"/>
<path d="M40.2758 20.0512C40.2758 15.0227 36.6118 10.9463 32.0919 10.9463C27.5721 10.9463 23.908 15.0227 23.908 20.0512C23.908 25.0797 27.5721 29.1561 32.0919 29.1561V29.9745C27.1658 29.9745 23.1724 25.5317 23.1724 20.0512C23.1724 14.5707 27.1658 10.1279 32.0919 10.1279C37.0181 10.1279 41.0115 14.5707 41.0115 20.0512C41.0115 25.5317 37.0181 29.9745 32.0919 29.9745V29.1561C36.6118 29.1561 40.2758 25.0797 40.2758 20.0512Z" fill="black"/>
<path d="M18.3908 20.3581C18.3908 22.2791 16.991 23.8364 15.2644 23.8364C13.5377 23.8364 12.1379 22.2791 12.1379 20.3581C12.1379 18.4372 13.5377 16.8799 15.2644 16.8799C16.991 16.8799 18.3908 18.4372 18.3908 20.3581Z" fill="#00875F"/>
<path d="M17.6552 20.3581C17.6552 18.8892 16.5848 17.6983 15.2644 17.6983C13.944 17.6983 12.8736 18.8892 12.8736 20.3581C12.8736 21.8271 13.944 23.018 15.2644 23.018V23.8364C13.5377 23.8364 12.1379 22.2791 12.1379 20.3581C12.1379 18.4372 13.5377 16.8799 15.2644 16.8799C16.991 16.8799 18.3908 18.4372 18.3908 20.3581C18.3908 22.2791 16.991 23.8364 15.2644 23.8364V23.018C16.5848 23.018 17.6552 21.8271 17.6552 20.3581Z" fill="black"/>
<path d="M52.046 20.3581C52.046 22.2791 50.6462 23.8364 48.9195 23.8364C47.1928 23.8364 45.7931 22.2791 45.7931 20.3581C45.7931 18.4372 47.1928 16.8799 48.9195 16.8799C50.6462 16.8799 52.046 18.4372 52.046 20.3581Z" fill="#00875F"/>
<path d="M51.3103 20.3581C51.3103 18.8892 50.2399 17.6983 48.9195 17.6983C47.5991 17.6983 46.5287 18.8892 46.5287 20.3581C46.5287 21.8271 47.5991 23.018 48.9195 23.018V23.8364C47.1928 23.8364 45.7931 22.2791 45.7931 20.3581C45.7931 18.4372 47.1928 16.8799 48.9195 16.8799C50.6462 16.8799 52.046 18.4372 52.046 20.3581C52.046 22.2791 50.6462 23.8364 48.9195 23.8364V23.018C50.2399 23.018 51.3103 21.8271 51.3103 20.3581Z" fill="black"/>
<path d="M32.7184 14.2776V16.1638H31.8218V14.2776H32.7184ZM32.6092 24.7188V26.4387H31.7126V24.7188H32.6092ZM33.2414 22.6216C33.2414 22.3786 33.2011 22.1719 33.1207 22.0014C33.044 21.8309 32.9176 21.6795 32.7414 21.5474C32.5689 21.4153 32.3352 21.2874 32.0402 21.1638C31.5421 20.9506 31.1034 20.7247 30.7241 20.486C30.3486 20.2431 30.0555 19.9425 29.8448 19.5845C29.6341 19.2222 29.5287 18.7639 29.5287 18.2098C29.5287 17.6813 29.6417 17.223 29.8678 16.8351C30.0938 16.4472 30.4061 16.1489 30.8046 15.94C31.2069 15.7269 31.6743 15.6203 32.2069 15.6203C32.613 15.6203 32.9808 15.6885 33.3103 15.8249C33.6398 15.957 33.9233 16.1531 34.1609 16.4131C34.3984 16.6689 34.5804 16.9822 34.7069 17.353C34.8333 17.7239 34.8965 18.148 34.8965 18.6254H33.2471C33.2471 18.3697 33.2222 18.1437 33.1724 17.9477C33.1226 17.7516 33.0498 17.5875 32.954 17.4553C32.862 17.3232 32.7509 17.2252 32.6207 17.1612C32.4904 17.093 32.3467 17.0589 32.1896 17.0589C31.9559 17.0589 31.7643 17.1101 31.6149 17.2124C31.4655 17.3147 31.3563 17.4532 31.2873 17.628C31.2222 17.7985 31.1896 17.9946 31.1896 18.2162C31.1896 18.4336 31.2241 18.6233 31.2931 18.7853C31.3659 18.9472 31.4904 19.0964 31.6666 19.2328C31.8429 19.365 32.0843 19.5014 32.3908 19.642C32.8889 19.8552 33.3256 20.0853 33.7011 20.3326C34.0766 20.5798 34.3697 20.8824 34.5804 21.2405C34.7912 21.5986 34.8965 22.0547 34.8965 22.6088C34.8965 23.1587 34.7816 23.6275 34.5517 24.0154C34.3218 24.3991 34 24.6932 33.5862 24.8978C33.1724 25.0981 32.6935 25.1983 32.1494 25.1983C31.7969 25.1983 31.4463 25.1472 31.0977 25.0449C30.749 24.9383 30.4329 24.7678 30.1494 24.5333C29.8659 24.2989 29.6398 23.9877 29.4712 23.5998C29.3027 23.2077 29.2184 22.726 29.2184 22.1548H30.8735C30.8735 22.466 30.9099 22.726 30.9827 22.9349C31.0555 23.1395 31.1513 23.3036 31.2701 23.4272C31.3927 23.5466 31.5306 23.6318 31.6839 23.683C31.8371 23.7341 31.9923 23.7597 32.1494 23.7597C32.3946 23.7597 32.5958 23.7107 32.7529 23.6126C32.9138 23.5146 33.0345 23.3803 33.1149 23.2098C33.1992 23.035 33.2414 22.839 33.2414 22.6216Z" fill="black"/>
</svg>
